# xmcd
#
# Track frame offsets:
#	150
#	15797
#	26387
#	41461
#	58623
#	76662
#	89110
#	102671
#	118913
#	138389
#
# Disc length: 2026 seconds
#
# Revision: 0
# Processed by: cddbd v1.5.2PL0 Copyright (c) Steve Scherf et al.
# Submitted via: EasyCDDAExtractor 15.2.1.1
#
DISCID=7807e80a
DTITLE=Daxton and The Sweet Lips - Thin Tall Sally
DYEAR=2011
DGENRE=Blues
TTITLE0=Automatic
TTITLE1=Perfect Day
TTITLE2=Good Time Friends
TTITLE3=Head Shave
TTITLE4=My Black Shirt
TTITLE5=Thin Tall Lily
TTITLE6=Man Of Deuce
TTITLE7=Vagabond Blues
TTITLE8=Scare Crow In The Corn
TTITLE9=Red Blooded Man
EXTD=
EXTT0=
EXTT1=
EXTT2=
EXTT3=
EXTT4=
EXTT5=
EXTT6=
EXTT7=
EXTT8=
EXTT9=
PLAYORDER=
